<svg xmlns="http://www.w3.org/2000/svg" width="66.125" height="51.431" viewBox="0 0 66.125 51.431">
  <path id="Icon_awesome-address-card" data-name="Icon awesome-address-card" d="M60.615,2.25H5.51A5.512,5.512,0,0,0,0,7.76V48.17a5.512,5.512,0,0,0,5.51,5.51h55.1a5.512,5.512,0,0,0,5.51-5.51V7.76A5.512,5.512,0,0,0,60.615,2.25ZM20.2,13.271a7.347,7.347,0,1,1-7.347,7.347A7.354,7.354,0,0,1,20.2,13.271ZM33.063,40.456a2.407,2.407,0,0,1-2.572,2.2H9.919a2.407,2.407,0,0,1-2.572-2.2v-2.2c0-3.651,3.455-6.612,7.715-6.612h.574a11.825,11.825,0,0,0,9.138,0h.574c4.259,0,7.715,2.962,7.715,6.612Zm25.715-6.061a.921.921,0,0,1-.918.918H41.328a.921.921,0,0,1-.918-.918V32.557a.921.921,0,0,1,.918-.918H57.859a.921.921,0,0,1,.918.918Zm0-7.347a.921.921,0,0,1-.918.918H41.328a.921.921,0,0,1-.918-.918V25.21a.921.921,0,0,1,.918-.918H57.859a.921.921,0,0,1,.918.918Zm0-7.347a.921.921,0,0,1-.918.918H41.328a.921.921,0,0,1-.918-.918V17.863a.921.921,0,0,1,.918-.918H57.859a.921.921,0,0,1,.918.918Z" transform="translate(0 -2.25)" fill="#325679"/>
</svg>
