<svg xmlns="http://www.w3.org/2000/svg" width="51.292" height="44.88" viewBox="0 0 51.292 44.88">
  <path id="Icon_awesome-camera" data-name="Icon awesome-camera" d="M51.292,13.47V42.322a4.81,4.81,0,0,1-4.809,4.809H4.809A4.81,4.81,0,0,1,0,42.322V13.47A4.81,4.81,0,0,1,4.809,8.661h8.816l1.232-3.3a4.8,4.8,0,0,1,4.5-3.116H31.927a4.8,4.8,0,0,1,4.5,3.116l1.242,3.3h8.816A4.81,4.81,0,0,1,51.292,13.47ZM37.668,27.9A12.022,12.022,0,1,0,25.646,39.918,12.031,12.031,0,0,0,37.668,27.9Zm-3.206,0a8.816,8.816,0,1,1-8.816-8.816A8.829,8.829,0,0,1,34.462,27.9Z" transform="translate(0 -2.25)" fill="#325679"/>
</svg>
