<svg xmlns="http://www.w3.org/2000/svg" width="52.5" height="52.5" viewBox="0 0 52.5 52.5">
  <path id="FontAwsome_coins_" data-name="FontAwsome (coins)" d="M0,41.559v4.378C0,49.557,8.818,52.5,19.688,52.5s19.688-2.943,19.688-6.562V41.559C35.14,44.543,27.4,45.938,19.688,45.938S4.235,44.543,0,41.559ZM32.813,13.125c10.869,0,19.688-2.943,19.688-6.562S43.682,0,32.813,0,13.125,2.943,13.125,6.563,21.943,13.125,32.813,13.125ZM0,30.8v5.291c0,3.62,8.818,6.563,19.688,6.563s19.688-2.943,19.688-6.562V30.8c-4.235,3.486-11.987,5.291-19.687,5.291S4.235,34.289,0,30.8Zm42.656,1.128c5.875-1.138,9.844-3.25,9.844-5.681V21.872c-2.379,1.682-5.875,2.83-9.844,3.538ZM19.688,16.406C8.818,16.406,0,20.077,0,24.609s8.818,8.2,19.688,8.2,19.688-3.671,19.688-8.2S30.557,16.406,19.688,16.406Zm22.487,5.773C48.327,21.072,52.5,18.9,52.5,16.406V12.028c-3.64,2.574-9.9,3.958-16.478,4.286C39.047,17.78,41.272,19.749,42.174,22.179Z" fill="#325679"/>
</svg>
