<svg xmlns="http://www.w3.org/2000/svg" width="17.53" height="17.53" viewBox="0 0 17.53 17.53">
  <path id="Icon_metro-copyright" data-name="Icon metro-copyright" d="M17.895,15.2v1.244a1.445,1.445,0,0,1-.417,1.016,2.768,2.768,0,0,1-1.073.69,7.845,7.845,0,0,1-1.347.371,7.492,7.492,0,0,1-1.341.126,5.276,5.276,0,0,1-3.909-1.586,5.391,5.391,0,0,1-1.569-3.949A5.3,5.3,0,0,1,13.66,7.694a8.054,8.054,0,0,1,.862.051,7.364,7.364,0,0,1,1.061.205,5.444,5.444,0,0,1,1.056.388,2.273,2.273,0,0,1,.788.645,1.467,1.467,0,0,1,.32.924v1.244a.161.161,0,0,1-.183.183H16.217a.161.161,0,0,1-.183-.183v-.8q0-.491-.748-.77a4.442,4.442,0,0,0-1.569-.28,3.468,3.468,0,0,0-2.608,1.044,3.735,3.735,0,0,0-1.01,2.711,4.02,4.02,0,0,0,1.044,2.847,3.477,3.477,0,0,0,2.665,1.124,4.836,4.836,0,0,0,1.575-.274q.8-.274.8-.753v-.8a.178.178,0,0,1,.051-.131.164.164,0,0,1,.12-.051h1.358a.184.184,0,0,1,.126.051.169.169,0,0,1,.057.131Zm-4.36-9.336A7.1,7.1,0,0,0,10.7,6.45a7.2,7.2,0,0,0-3.886,3.886,7.2,7.2,0,0,0,0,5.672A7.2,7.2,0,0,0,10.7,19.894a7.2,7.2,0,0,0,5.672,0,7.2,7.2,0,0,0,3.886-3.886,7.2,7.2,0,0,0,0-5.672A7.2,7.2,0,0,0,16.371,6.45a7.1,7.1,0,0,0-2.836-.582Zm8.765,7.3a8.574,8.574,0,0,1-1.176,4.4,8.726,8.726,0,0,1-3.19,3.19,8.821,8.821,0,0,1-8.8,0,8.726,8.726,0,0,1-3.19-3.19,8.574,8.574,0,0,1-1.176-4.4,8.574,8.574,0,0,1,1.176-4.4,8.726,8.726,0,0,1,3.19-3.19,8.821,8.821,0,0,1,8.8,0,8.726,8.726,0,0,1,3.19,3.19A8.574,8.574,0,0,1,22.3,13.172Z" transform="translate(-4.77 -4.407)" fill="#325679"/>
</svg>
