<svg xmlns="http://www.w3.org/2000/svg" width="19.655" height="19.655" viewBox="0 0 19.655 19.655">
  <path id="Icon_metro-cross" data-name="Icon metro-cross" d="M22.046,17.718h0l-5.962-5.963,5.962-5.963h0a.616.616,0,0,0,0-.868L19.229,2.107a.616.616,0,0,0-.868,0h0L12.4,8.07,6.436,2.108h0a.616.616,0,0,0-.868,0L2.75,4.924a.616.616,0,0,0,0,.868h0l5.963,5.963L2.75,17.718h0a.616.616,0,0,0,0,.868L5.567,21.4a.616.616,0,0,0,.868,0h0L12.4,15.441,18.361,21.4h0a.615.615,0,0,0,.868,0l2.817-2.817a.616.616,0,0,0,0-.868Z" transform="translate(-2.571 -1.928)" fill="#fff"/>
</svg>
