<svg xmlns="http://www.w3.org/2000/svg" width="22.065" height="28.96" viewBox="0 0 22.065 28.96">
  <path id="Icon_material-lock" data-name="Icon material-lock" d="M25.307,11.153H23.928V8.4a6.9,6.9,0,0,0-13.791,0v2.758H8.758A2.766,2.766,0,0,0,6,13.912V27.7A2.766,2.766,0,0,0,8.758,30.46H25.307A2.766,2.766,0,0,0,28.065,27.7V13.912A2.766,2.766,0,0,0,25.307,11.153ZM17.032,23.565a2.758,2.758,0,1,1,2.758-2.758A2.766,2.766,0,0,1,17.032,23.565Zm4.275-12.412h-8.55V8.4a4.275,4.275,0,1,1,8.55,0Z" transform="translate(-6 -1.5)" opacity="0.25"/>
</svg>
