<svg xmlns="http://www.w3.org/2000/svg" xmlns:xlink="http://www.w3.org/1999/xlink" width="57" height="55" viewBox="0 0 57 55">
  <defs>
    <linearGradient id="linear-gradient" x1="0.5" x2="1.593" y2="2.894" gradientUnits="objectBoundingBox">
      <stop offset="0" stop-color="#fff"/>
      <stop offset="1" stop-color="#efefef"/>
    </linearGradient>
    <filter id="Rectangle_932" x="0" y="0" width="57" height="55" filterUnits="userSpaceOnUse">
      <feOffset dy="3" input="SourceAlpha"/>
      <feGaussianBlur stdDeviation="3" result="blur"/>
      <feFlood flood-opacity="0.161"/>
      <feComposite operator="in" in2="blur"/>
      <feComposite in="SourceGraphic"/>
    </filter>
  </defs>
  <g id="Group_427" data-name="Group 427" transform="translate(-1734 -279)">
    <g transform="matrix(1, 0, 0, 1, 1734, 279)" filter="url(#Rectangle_932)">
      <rect id="Rectangle_932-2" data-name="Rectangle 932" width="39" height="37" rx="8" transform="translate(9 6)" fill="url(#linear-gradient)"/>
    </g>
    <path id="Icon_awesome-trash-alt" data-name="Icon awesome-trash-alt" d="M1.5,21.678A2.243,2.243,0,0,0,3.738,23.92H17.193a2.243,2.243,0,0,0,2.243-2.243V5.98H1.5ZM14.2,9.718a.748.748,0,0,1,1.5,0V20.183a.748.748,0,0,1-1.5,0Zm-4.485,0a.748.748,0,0,1,1.5,0V20.183a.748.748,0,0,1-1.5,0Zm-4.485,0a.748.748,0,0,1,1.5,0V20.183a.748.748,0,0,1-1.5,0ZM20.183,1.5H14.576L14.137.621a1.121,1.121,0,0,0-1-.621H7.793a1.108,1.108,0,0,0-1,.621L6.354,1.5H.748A.748.748,0,0,0,0,2.243v1.5a.748.748,0,0,0,.748.748H20.183a.748.748,0,0,0,.748-.748v-1.5A.748.748,0,0,0,20.183,1.5Z" transform="translate(1752.035 291.54)" fill="#bb3838"/>
  </g>
</svg>
