<svg xmlns="http://www.w3.org/2000/svg" width="38.562" height="30.85" viewBox="0 0 38.562 30.85">
  <path id="Icon_awesome-door-open" data-name="Icon awesome-door-open" d="M37.6,26.993h-4.82V6.836a2.94,2.94,0,0,0-2.892-2.98H23.137V7.712h5.784V30.85H37.6a.964.964,0,0,0,.964-.964V27.957A.964.964,0,0,0,37.6,26.993ZM18.813.061l-11.569,3A1.986,1.986,0,0,0,5.784,5v22H.964A.964.964,0,0,0,0,27.957v1.928a.964.964,0,0,0,.964.964H21.209V2a1.944,1.944,0,0,0-2.4-1.938ZM15.907,17.353c-.8,0-1.446-.863-1.446-1.928s.648-1.928,1.446-1.928,1.446.863,1.446,1.928S16.705,17.353,15.907,17.353Z" fill="#325679"/>
</svg>
