<svg xmlns="http://www.w3.org/2000/svg" width="29" height="29" viewBox="0 0 29 29">
  <path id="Icon_awesome-info-circle" data-name="Icon awesome-info-circle" d="M15.063.563a14.5,14.5,0,1,0,14.5,14.5A14.5,14.5,0,0,0,15.063.563Zm0,6.431A2.456,2.456,0,1,1,12.607,9.45,2.456,2.456,0,0,1,15.063,6.994Zm3.274,14.851a.7.7,0,0,1-.7.7H12.49a.7.7,0,0,1-.7-.7v-1.4a.7.7,0,0,1,.7-.7h.7V16h-.7a.7.7,0,0,1-.7-.7v-1.4a.7.7,0,0,1,.7-.7h3.742a.7.7,0,0,1,.7.7V19.74h.7a.7.7,0,0,1,.7.7Z" transform="translate(-0.563 -0.563)" fill="#ffbd38"/>
</svg>
