<svg xmlns="http://www.w3.org/2000/svg" width="31.557" height="31.557" viewBox="0 0 31.557 31.557">
  <path id="Icon_awesome-key" data-name="Icon awesome-key" d="M31.557,10.848A10.853,10.853,0,0,1,18.686,21.506l-1.48,1.665a1.479,1.479,0,0,1-1.106.5H13.806v2.465a1.479,1.479,0,0,1-1.479,1.479H9.861v2.465a1.479,1.479,0,0,1-1.479,1.479h-6.9A1.479,1.479,0,0,1,0,30.077V25.266A1.48,1.48,0,0,1,.433,24.22l9.973-9.973a10.849,10.849,0,1,1,21.151-3.4ZM20.709,7.889a2.958,2.958,0,1,0,2.958-2.958A2.958,2.958,0,0,0,20.709,7.889Z" fill="#3b5998"/>
</svg>
