<svg xmlns="http://www.w3.org/2000/svg" width="27.698" height="44.318" viewBox="0 0 27.698 44.318">
  <path id="Icon_metro-location" data-name="Icon metro-location" d="M22.2,1.928A13.849,13.849,0,0,0,8.355,15.777C8.355,29.627,22.2,46.246,22.2,46.246S36.053,29.627,36.053,15.777A13.849,13.849,0,0,0,22.2,1.928Zm0,22.332a8.483,8.483,0,1,1,8.483-8.483A8.483,8.483,0,0,1,22.2,24.26Zm-5.367-8.483A5.367,5.367,0,1,1,22.2,21.144,5.367,5.367,0,0,1,16.837,15.777Z" transform="translate(-8.355 -1.928)" fill="#ea4335"/>
</svg>
