<svg xmlns="http://www.w3.org/2000/svg" width="33.487" height="23.44" viewBox="0 0 33.487 23.44">
  <path id="Icon_awesome-money-bill-wave" data-name="Icon awesome-money-bill-wave" d="M32.5,3.425A15.494,15.494,0,0,0,26.41,2.25c-6.445,0-12.889,3.262-19.333,3.262a15.875,15.875,0,0,1-4.848-.718,1.789,1.789,0,0,0-.542-.085A1.665,1.665,0,0,0,0,6.374v16.6a1.664,1.664,0,0,0,.986,1.541A15.486,15.486,0,0,0,7.077,25.69c6.445,0,12.889-3.262,19.334-3.262a15.875,15.875,0,0,1,4.848.718,1.789,1.789,0,0,0,.542.085,1.665,1.665,0,0,0,1.687-1.664V4.967A1.666,1.666,0,0,0,32.5,3.425ZM2.511,7.494a18.208,18.208,0,0,0,3.282.467,3.353,3.353,0,0,1-3.282,2.7Zm0,14.912v-2.5a3.348,3.348,0,0,1,3.333,3.213A12.64,12.64,0,0,1,2.511,22.406Zm14.232-3.412c-2.312,0-4.186-2.249-4.186-5.023s1.874-5.023,4.186-5.023,4.186,2.249,4.186,5.023S19.054,18.993,16.743,18.993Zm14.232,1.454a17.99,17.99,0,0,0-2.842-.442,3.342,3.342,0,0,1,2.842-2.578Zm0-12.354a3.342,3.342,0,0,1-2.92-3.22,12.577,12.577,0,0,1,2.92.662Z" transform="translate(0 -2.25)" fill="#325679"/>
</svg>
