<svg xmlns="http://www.w3.org/2000/svg" width="33.487" height="23.441" viewBox="0 0 33.487 23.441">
  <path id="Icon_awesome-money-check" data-name="Icon awesome-money-check" d="M0,24.016a1.675,1.675,0,0,0,1.674,1.674H31.812a1.675,1.675,0,0,0,1.674-1.674V7.273H0ZM23.441,13.133a.837.837,0,0,1,.837-.837H29.3a.837.837,0,0,1,.837.837v1.674a.837.837,0,0,1-.837.837H24.278a.837.837,0,0,1-.837-.837Zm0,6.279a.418.418,0,0,1,.419-.419h5.86a.418.418,0,0,1,.419.419v.837a.418.418,0,0,1-.419.419h-5.86a.418.418,0,0,1-.419-.419ZM3.349,14.389a.418.418,0,0,1,.419-.419H19.674a.418.418,0,0,1,.419.419v.837a.418.418,0,0,1-.419.419H3.767a.418.418,0,0,1-.419-.419Zm0,5.023a.418.418,0,0,1,.419-.419h9.209a.418.418,0,0,1,.419.419v.837a.418.418,0,0,1-.419.419H3.767a.418.418,0,0,1-.419-.419ZM32.65,2.25H.837A.837.837,0,0,0,0,3.087V5.6H33.487V3.087A.837.837,0,0,0,32.65,2.25Z" transform="translate(0 -2.25)" fill="#325679"/>
</svg>
