<svg xmlns="http://www.w3.org/2000/svg" width="33.844" height="33.844" viewBox="0 0 33.844 33.844">
  <path id="Icon_awesome-phone" data-name="Icon awesome-phone" d="M1.229,1.626,8.1.04A1.6,1.6,0,0,1,9.921.958l3.173,7.4a1.582,1.582,0,0,1-.456,1.851L8.632,13.491A24.5,24.5,0,0,0,20.345,25.2L23.623,21.2a1.585,1.585,0,0,1,1.851-.456l7.4,3.173a1.605,1.605,0,0,1,.925,1.824l-1.586,6.874a1.586,1.586,0,0,1-1.547,1.229A30.667,30.667,0,0,1,0,3.173,1.584,1.584,0,0,1,1.229,1.626Z" transform="translate(0.001 0.001)" fill="#325679"/>
</svg>
