<svg xmlns="http://www.w3.org/2000/svg" width="54" height="54" viewBox="0 0 54 54">
  <g id="Group_392" data-name="Group 392" transform="translate(-140 -173)">
    <circle id="Ellipse_16" data-name="Ellipse 16" cx="27" cy="27" r="27" transform="translate(140 173)" fill="#325679"/>
    <path id="Icon_material-speaker-notes" data-name="Icon material-speaker-notes" d="M29.456,3H5.94A2.936,2.936,0,0,0,3.015,5.94L3,32.4l5.879-5.879H29.456a2.948,2.948,0,0,0,2.94-2.94V5.94A2.948,2.948,0,0,0,29.456,3ZM11.819,20.637H8.879V17.7h2.94Zm0-4.409H8.879v-2.94h2.94Zm0-4.409H8.879V8.879h2.94Zm10.288,8.819H14.758V17.7h7.349Zm4.409-4.409H14.758v-2.94H26.516Zm0-4.409H14.758V8.879H26.516Z" transform="translate(149.302 182.361)" fill="#fff"/>
  </g>
</svg>
