<svg xmlns="http://www.w3.org/2000/svg" width="18.03" height="23.44" viewBox="0 0 18.03 23.44">
  <path id="Icon_ionic-ios-water" data-name="Icon ionic-ios-water" d="M21.174,8.919a25.2,25.2,0,0,0-5.116-5.443.482.482,0,0,0-.586-.006,24.888,24.888,0,0,0-5.1,5.437,17.092,17.092,0,0,0-3.617,9.629c0,.068-.006.141-.006.208a7.364,7.364,0,0,0,.614,2.936,7.917,7.917,0,0,0,.856,1.482,9.3,9.3,0,0,0,7.539,3.651c4.981,0,9.021-3.612,9.021-8.069A17.158,17.158,0,0,0,21.174,8.919ZM16.329,23.811H16.3a.494.494,0,0,1-.146-.964A7.015,7.015,0,0,0,21.022,18.3a.49.49,0,0,1,.947.175v.079A5.467,5.467,0,0,1,16.329,23.811Z" transform="translate(-6.75 -3.374)" fill="#325679"/>
</svg>
