<svg xmlns="http://www.w3.org/2000/svg" width="33.487" height="23.441" viewBox="0 0 33.487 23.441">
  <path id="Icon_awesome-wifi" data-name="Icon awesome-wifi" d="M33.22,8.679a24.328,24.328,0,0,0-32.954,0,.832.832,0,0,0-.018,1.2L2.04,11.659a.85.85,0,0,0,1.172.02,20.075,20.075,0,0,1,27.064,0,.85.85,0,0,0,1.172-.02l1.792-1.777A.832.832,0,0,0,33.22,8.679ZM16.743,18.993a3.349,3.349,0,1,0,3.349,3.349A3.348,3.348,0,0,0,16.743,18.993Zm10.6-4.374a16.063,16.063,0,0,0-21.209,0,.827.827,0,0,0-.03,1.211l1.8,1.778a.854.854,0,0,0,1.154.042,11.785,11.785,0,0,1,15.356,0,.854.854,0,0,0,1.154-.042l1.8-1.778A.827.827,0,0,0,27.348,14.62Z" transform="translate(0 -2.25)" fill="#325679"/>
</svg>
