<svg xmlns="http://www.w3.org/2000/svg" width="30.191" height="27.566" viewBox="0 0 30.191 27.566">
  <path id="Icon_material-add-a-photo" data-name="Icon material-add-a-photo" d="M3.938,5.438V1.5H6.563V5.438H10.5V8.063H6.563V12H3.938V8.063H0V5.438Zm3.938,7.876V9.376h3.938V5.438H21l2.4,2.625h4.161a2.633,2.633,0,0,1,2.625,2.625V26.441a2.633,2.633,0,0,1-2.625,2.625h-21a2.633,2.633,0,0,1-2.625-2.625V13.314Zm9.189,11.814A6.563,6.563,0,1,0,10.5,18.565,6.566,6.566,0,0,0,17.065,25.128Zm-4.2-6.563a4.2,4.2,0,1,0,4.2-4.2A4.2,4.2,0,0,0,12.864,18.565Z" transform="translate(0 -1.5)" fill="#fff"/>
</svg>
