<svg xmlns="http://www.w3.org/2000/svg" xmlns:xlink="http://www.w3.org/1999/xlink" width="49.087" height="39.27" viewBox="0 0 49.087 39.27">
  <defs>
    <linearGradient id="linear-gradient" x1="0.5" x2="0.5" y2="1" gradientUnits="objectBoundingBox">
      <stop offset="0" stop-color="#c4c4c4"/>
      <stop offset="1" stop-color="#2b2b2b"/>
    </linearGradient>
  </defs>
  <path id="Icon_awesome-city" data-name="Icon awesome-city" d="M47.246,14.726H36.815V1.841A1.84,1.84,0,0,0,34.974,0H23.93a1.84,1.84,0,0,0-1.841,1.841V7.363H17.18V1.227A1.227,1.227,0,0,0,15.953,0H14.726A1.227,1.227,0,0,0,13.5,1.227V7.363H8.59V1.227A1.227,1.227,0,0,0,7.363,0H6.136A1.227,1.227,0,0,0,4.909,1.227V7.363H1.841A1.84,1.84,0,0,0,0,9.2V36.815A2.455,2.455,0,0,0,2.454,39.27H46.633a2.455,2.455,0,0,0,2.454-2.454V16.567A1.841,1.841,0,0,0,47.246,14.726ZM9.817,30.986a.92.92,0,0,1-.92.92H5.829a.92.92,0,0,1-.92-.92V27.918a.92.92,0,0,1,.92-.92H8.9a.92.92,0,0,1,.92.92Zm0-7.363a.92.92,0,0,1-.92.92H5.829a.92.92,0,0,1-.92-.92V20.555a.92.92,0,0,1,.92-.92H8.9a.92.92,0,0,1,.92.92Zm0-7.363a.92.92,0,0,1-.92.92H5.829a.92.92,0,0,1-.92-.92V13.192a.92.92,0,0,1,.92-.92H8.9a.92.92,0,0,1,.92.92Zm9.817,14.726a.92.92,0,0,1-.92.92H15.646a.92.92,0,0,1-.92-.92V27.918a.92.92,0,0,1,.92-.92h3.068a.92.92,0,0,1,.92.92Zm0-7.363a.92.92,0,0,1-.92.92H15.646a.92.92,0,0,1-.92-.92V20.555a.92.92,0,0,1,.92-.92h3.068a.92.92,0,0,1,.92.92Zm0-7.363a.92.92,0,0,1-.92.92H15.646a.92.92,0,0,1-.92-.92V13.192a.92.92,0,0,1,.92-.92h3.068a.92.92,0,0,1,.92.92Zm12.272,7.363a.92.92,0,0,1-.92.92H27.918a.92.92,0,0,1-.92-.92V20.555a.92.92,0,0,1,.92-.92h3.068a.92.92,0,0,1,.92.92Zm0-7.363a.92.92,0,0,1-.92.92H27.918a.92.92,0,0,1-.92-.92V13.192a.92.92,0,0,1,.92-.92h3.068a.92.92,0,0,1,.92.92Zm0-7.363a.92.92,0,0,1-.92.92H27.918A.92.92,0,0,1,27,8.9V5.829a.92.92,0,0,1,.92-.92h3.068a.92.92,0,0,1,.92.92ZM44.178,30.986a.92.92,0,0,1-.92.92H40.19a.92.92,0,0,1-.92-.92V27.918a.92.92,0,0,1,.92-.92h3.068a.92.92,0,0,1,.92.92Zm0-7.363a.92.92,0,0,1-.92.92H40.19a.92.92,0,0,1-.92-.92V20.555a.92.92,0,0,1,.92-.92h3.068a.92.92,0,0,1,.92.92Z" fill="url(#linear-gradient)"/>
</svg>
