<svg xmlns="http://www.w3.org/2000/svg" width="50" height="50" viewBox="0 0 50 50">
  <g id="Group_27" data-name="Group 27" transform="translate(-1592 -3807)">
    <g id="Ellipse_27" data-name="Ellipse 27" transform="translate(1592 3807)" fill="#fff" stroke="#c2c2c2" stroke-width="1">
      <circle cx="25" cy="25" r="25" stroke="none"/>
      <circle cx="25" cy="25" r="24.5" fill="none"/>
    </g>
    <path id="FontAwsome_thumbs-down_" data-name="FontAwsome (thumbs-down)" d="M0,2.734V14.453a1.172,1.172,0,0,0,1.172,1.172H5.078A1.172,1.172,0,0,0,6.25,14.453V2.734A1.172,1.172,0,0,0,5.078,1.562H1.172A1.172,1.172,0,0,0,0,2.734ZM1.953,12.5a1.172,1.172,0,1,1,1.172,1.172A1.172,1.172,0,0,1,1.953,12.5ZM15.234,25c-.985,0-1.44-1.919-1.657-2.822a5.914,5.914,0,0,0-1.24-2.876c-1.585-1.588-2.417-3.612-4.351-5.523a.585.585,0,0,1-.174-.416V2.925a.586.586,0,0,1,.575-.586,7.683,7.683,0,0,0,2.571-.79A14.017,14.017,0,0,1,16.8,0h.139c2.089,0,4.559.02,5.555,1.452a2.592,2.592,0,0,1,.3,2.179,3.861,3.861,0,0,1,.8,3.65,4.079,4.079,0,0,1,.454,3.88l.005.005a3.535,3.535,0,0,1,.949,2.4,2.917,2.917,0,0,1-2.908,2.837H17.125c.357,1.384,1.625,2.546,1.625,4.617C18.75,24.609,16.406,25,15.234,25Z" transform="translate(1605 3820)" fill="#c2c2c2"/>
  </g>
</svg>
