<svg xmlns="http://www.w3.org/2000/svg" width="39.9" height="52.5" viewBox="0 0 39.9 52.5">
  <g id="Icon_ionic-ios-document" data-name="Icon ionic-ios-document" transform="translate(-7.313 -3.938)">
    <path id="Path_14" data-name="Path 14" d="M23.1,16.925H35.039a.65.65,0,0,0,.656-.656h0a3.884,3.884,0,0,0-1.4-3.006L24.277,4.916a4.215,4.215,0,0,0-2.7-.971h0a.969.969,0,0,0-.971.971v9.516A2.493,2.493,0,0,0,23.1,16.925Z" transform="translate(11.517 0.006)" fill="#325679"/>
    <path id="Path_15" data-name="Path 15" d="M28.706,14.438V3.938H11.513a4.212,4.212,0,0,0-4.2,4.2v44.1a4.212,4.212,0,0,0,4.2,4.2h31.5a4.212,4.212,0,0,0,4.2-4.2V20.344h-12.6A5.915,5.915,0,0,1,28.706,14.438Z" transform="translate(0)" fill="#325679"/>
  </g>
</svg>
