<svg xmlns="http://www.w3.org/2000/svg" width="24.688" height="21.941" viewBox="0 0 24.688 21.941">
  <path id="Icon_awesome-edit" data-name="Icon awesome-edit" d="M17.256,3.569l3.866,3.866a.419.419,0,0,1,0,.591l-9.361,9.361-3.978.441a.834.834,0,0,1-.922-.922L7.3,12.93l9.361-9.361A.419.419,0,0,1,17.256,3.569ZM24.2,2.587,22.108.5a1.676,1.676,0,0,0-2.366,0L18.225,2.013a.419.419,0,0,0,0,.591l3.866,3.866a.419.419,0,0,0,.591,0L24.2,4.953a1.676,1.676,0,0,0,0-2.366ZM16.459,14.842V19.2H2.743V5.489h9.85a.527.527,0,0,0,.364-.15l1.714-1.714a.514.514,0,0,0-.364-.879H2.057A2.058,2.058,0,0,0,0,4.8V19.891a2.058,2.058,0,0,0,2.057,2.057H17.145A2.058,2.058,0,0,0,19.2,19.891V13.127a.515.515,0,0,0-.879-.364l-1.714,1.714A.527.527,0,0,0,16.459,14.842Z" transform="translate(0 -0.007)" fill="#325679"/>
</svg>
