<svg xmlns="http://www.w3.org/2000/svg" width="17.58" height="23.44" viewBox="0 0 17.58 23.44">
  <path id="Icon_map-electrician" data-name="Icon map-electrician" d="M21.412,7.068H18.97V1.657a.978.978,0,0,0-1.953,0V7.068H9.2V1.657a.978.978,0,0,0-1.953,0V7.068H4.808c-.27,0-.488.424-.488.683V10.1c0,2.812,4.883,6.078,4.883,10.595v1.516h1.953V24.16h3.907V22.207h1.953V20.691c0-4.517,4.883-7.783,4.883-10.595V7.752c0-.259-.218-.683-.488-.683m-8.835,8a.14.14,0,0,0-.145-.189h-1.9c-.112,0-.144-.063-.073-.146l3.985-5.057c.058-.091.121-.059.1.045-.03.132-.865,3.517-.865,3.517-.041.1.018.175.129.175h1.9c.112,0,.147.075.079.16,0,0-3.915,5.08-3.985,5.165s-.136.059-.1-.085l.873-3.585" transform="translate(-4.32 -0.72)" fill="#325679"/>
</svg>
