<svg xmlns="http://www.w3.org/2000/svg" width="22.936" height="14.335" viewBox="0 0 22.936 14.335">
  <path id="Icon_metro-eye" data-name="Icon metro-eye" d="M14.039,7.712A12.845,12.845,0,0,0,2.571,14.88a12.758,12.758,0,0,0,22.936,0A12.845,12.845,0,0,0,14.039,7.712Zm5.655,3.8a10.906,10.906,0,0,1,3.347,3.366,10.906,10.906,0,0,1-3.347,3.366,10.509,10.509,0,0,1-11.309,0A10.906,10.906,0,0,1,5.037,14.88a10.906,10.906,0,0,1,3.347-3.366c.088-.056.176-.11.266-.164a5.734,5.734,0,1,0,10.778,0q.134.08.266.164Zm-5.655,1.216a2.15,2.15,0,1,1-2.15-2.15A2.15,2.15,0,0,1,14.039,12.729Z" transform="translate(-2.571 -7.712)" fill="#325679"/>
</svg>
