<svg xmlns="http://www.w3.org/2000/svg" xmlns:xlink="http://www.w3.org/1999/xlink" width="57" height="55" viewBox="0 0 57 55">
  <defs>
    <linearGradient id="linear-gradient" x1="0.5" x2="1.593" y2="2.894" gradientUnits="objectBoundingBox">
      <stop offset="0" stop-color="#fff"/>
      <stop offset="1" stop-color="#efefef"/>
    </linearGradient>
    <filter id="Path_427" x="0" y="0" width="57" height="55" filterUnits="userSpaceOnUse">
      <feOffset dy="3" input="SourceAlpha"/>
      <feGaussianBlur stdDeviation="3" result="blur"/>
      <feFlood flood-opacity="0.161"/>
      <feComposite operator="in" in2="blur"/>
      <feComposite in="SourceGraphic"/>
    </filter>
  </defs>
  <g id="Group_431" data-name="Group 431" transform="translate(-1734 -279)">
    <g transform="matrix(1, 0, 0, 1, 1734, 279)" filter="url(#Path_427)">
      <path id="Path_427-2" data-name="Path 427" d="M8,0H31a8,8,0,0,1,8,8V29a8,8,0,0,1-8,8H8a8,8,0,0,1-8-8V8A8,8,0,0,1,8,0Z" transform="translate(9 6)" fill="url(#linear-gradient)"/>
    </g>
    <path id="Icon_awesome-edit" data-name="Icon awesome-edit" d="M17.771,3.675l3.981,3.981a.432.432,0,0,1,0,.609l-9.64,9.64-4.1.455a.859.859,0,0,1-.949-.949l.455-4.1,9.64-9.64A.432.432,0,0,1,17.771,3.675Zm7.151-1.011L22.768.51a1.726,1.726,0,0,0-2.437,0L18.768,2.073a.432.432,0,0,0,0,.609L22.75,6.663a.432.432,0,0,0,.609,0L24.922,5.1a1.726,1.726,0,0,0,0-2.437ZM16.95,15.284v4.493H2.825V5.653H12.968a.543.543,0,0,0,.375-.154l1.766-1.766a.53.53,0,0,0-.375-.9H2.119A2.119,2.119,0,0,0,0,4.946V20.484A2.119,2.119,0,0,0,2.119,22.6H17.656a2.119,2.119,0,0,0,2.119-2.119V13.518a.531.531,0,0,0-.9-.375L17.1,14.909A.543.543,0,0,0,16.95,15.284Z" transform="translate(1752.788 290.195)" fill="#3b5998"/>
  </g>
</svg>
