<svg xmlns="http://www.w3.org/2000/svg" width="34.549" height="30.71" viewBox="0 0 34.549 30.71">
  <path id="Icon_awesome-hotel" data-name="Icon awesome-hotel" d="M33.59,3.839a.959.959,0,0,0,.96-.96V.96A.959.959,0,0,0,33.59,0H.96A.959.959,0,0,0,0,.96V2.879a.959.959,0,0,0,.96.96h.959V26.872H.96a.959.959,0,0,0-.96.96v1.919a.959.959,0,0,0,.96.96h14.4v-4.8a.963.963,0,0,1,.96-.96h1.919a.963.963,0,0,1,.96.96v4.8h14.4a.959.959,0,0,0,.96-.96V27.831a.959.959,0,0,0-.96-.96h-.96V3.839ZM15.355,6.526a.826.826,0,0,1,.768-.768h2.3a.826.826,0,0,1,.768.768v2.3a.826.826,0,0,1-.768.768h-2.3a.826.826,0,0,1-.768-.768Zm0,5.758a.826.826,0,0,1,.768-.768h2.3a.826.826,0,0,1,.768.768v2.3a.826.826,0,0,1-.768.768h-2.3a.826.826,0,0,1-.768-.768v-2.3ZM7.678,6.526a.826.826,0,0,1,.768-.768h2.3a.826.826,0,0,1,.768.768v2.3a.826.826,0,0,1-.768.768h-2.3a.826.826,0,0,1-.768-.768Zm3.071,8.829h-2.3a.826.826,0,0,1-.768-.768v-2.3a.826.826,0,0,1,.768-.768h2.3a.826.826,0,0,1,.768.768v2.3A.826.826,0,0,1,10.749,15.355Zm.768,7.678a5.758,5.758,0,0,1,11.516,0Zm15.355-8.445a.826.826,0,0,1-.768.768H23.8a.826.826,0,0,1-.768-.768v-2.3a.826.826,0,0,1,.768-.768h2.3a.826.826,0,0,1,.768.768Zm0-5.758A.826.826,0,0,1,26.1,9.6H23.8a.826.826,0,0,1-.768-.768v-2.3a.826.826,0,0,1,.768-.768h2.3a.826.826,0,0,1,.768.768Z" fill="#325679"/>
</svg>
