<svg xmlns="http://www.w3.org/2000/svg" width="32.666" height="22.051" viewBox="0 0 32.666 22.051">
  <path id="Icon_zocial-email" data-name="Icon zocial-email" d="M.072,24.165V6.021q0-.032.095-.6l10.679,9.135L.2,24.8a2.67,2.67,0,0,1-.126-.63Zm1.418-20a1.358,1.358,0,0,1,.536-.095h28.76a1.784,1.784,0,0,1,.567.095l-10.71,9.167-1.418,1.134-2.8,2.3-2.8-2.3L12.2,13.329Zm.032,21.862,10.742-10.3,4.158,3.371,4.158-3.371,10.742,10.3a1.513,1.513,0,0,1-.536.094H2.025a1.427,1.427,0,0,1-.5-.094ZM22,14.558,32.644,5.423a1.88,1.88,0,0,1,.095.6V24.165a2.414,2.414,0,0,1-.095.63Z" transform="translate(-0.072 -4.068)" opacity="0.25"/>
</svg>
