<svg xmlns="http://www.w3.org/2000/svg" width="50" height="50" viewBox="0 0 50 50">
  <g id="Group_26" data-name="Group 26" transform="translate(-1454 -3807)">
    <g id="Ellipse_26" data-name="Ellipse 26" transform="translate(1454 3807)" fill="#fff" stroke="#c2c2c2" stroke-width="1">
      <circle cx="25" cy="25" r="25" stroke="none"/>
      <circle cx="25" cy="25" r="24.5" fill="none"/>
    </g>
    <path id="FontAwsome_thumbs-up_" data-name="FontAwsome (thumbs-up)" d="M5.078,10.938H1.172A1.172,1.172,0,0,0,0,12.109V23.828A1.172,1.172,0,0,0,1.172,25H5.078A1.172,1.172,0,0,0,6.25,23.828V12.109A1.172,1.172,0,0,0,5.078,10.938ZM3.125,23.047A1.172,1.172,0,1,1,4.3,21.875,1.172,1.172,0,0,1,3.125,23.047ZM18.75,3.977c0,2.071-1.268,3.233-1.625,4.617h4.967A2.917,2.917,0,0,1,25,11.431a3.535,3.535,0,0,1-.949,2.4l-.005.005a4.079,4.079,0,0,1-.454,3.88,3.861,3.861,0,0,1-.8,3.65,2.592,2.592,0,0,1-.3,2.179C21.494,24.98,19.024,25,16.936,25H16.8a14.017,14.017,0,0,1-5.838-1.549,7.685,7.685,0,0,0-2.571-.79.586.586,0,0,1-.575-.586V11.637a.585.585,0,0,1,.174-.416C9.921,9.31,10.752,7.286,12.338,5.7a5.914,5.914,0,0,0,1.24-2.876c.217-.9.671-2.822,1.657-2.822C16.406,0,18.75.391,18.75,3.977Z" transform="translate(1467 3820)" fill="#c2c2c2"/>
  </g>
</svg>
