<svg xmlns="http://www.w3.org/2000/svg" width="127.212" height="127.213" viewBox="0 0 127.212 127.213">
  <g id="Group_422" data-name="Group 422" transform="translate(-621.394 -739)">
    <path id="Icon_metro-qrcode" data-name="Icon metro-qrcode" d="M42.325,9.879h-31.8v31.8h31.8Zm7.951-7.951v47.7H2.571V1.928Zm-31.8,15.9h15.9v15.9h-15.9Zm103.36-7.951h-31.8v31.8h31.8V9.879Zm7.951-7.951v47.7h-47.7V1.928h47.7Zm-31.8,15.9h15.9v15.9H97.98ZM42.325,89.387h-31.8v31.8h31.8Zm7.951-7.951v47.7H2.571v-47.7Zm-31.8,15.9h15.9v15.9h-15.9ZM58.226,1.928h7.951V9.879H58.226Zm7.951,7.951h7.951V17.83H66.177ZM58.226,17.83h7.951V25.78H58.226Zm7.951,7.951h7.951v7.951H66.177Zm-7.951,7.951h7.951v7.951H58.226Zm7.951,7.951h7.951v7.951H66.177Zm-7.951,7.951h7.951v7.951H58.226Zm0,15.9h7.951v7.951H58.226Zm7.951,7.951h7.951v7.951H66.177Zm-7.951,7.951h7.951v7.951H58.226Zm7.951,7.951h7.951v7.951H66.177Zm-7.951,7.951h7.951v7.951H58.226Zm7.951,7.951h7.951v7.951H66.177Zm-7.951,7.951h7.951v7.951H58.226Zm7.951,7.951h7.951v7.951H66.177Zm55.655-55.656h7.951v7.951h-7.951Zm-111.311,0h7.951v7.951H10.521Zm7.951-7.951h7.951v7.951H18.472Zm-15.9,0h7.951v7.951H2.571Zm31.8,0h7.951v7.951H34.374Zm7.951,7.951h7.951v7.951H42.325Zm7.951-7.951h7.951v7.951H50.275Zm23.852,7.951h7.951v7.951H74.128Zm7.951-7.951h7.951v7.951H82.078Zm7.951,7.951H97.98v7.951H90.029Zm7.951-7.951h7.951v7.951H97.98Zm7.951,7.951h7.951v7.951h-7.951Zm7.951-7.951h7.951v7.951h-7.951Zm7.951,23.852h7.951v7.951h-7.951Zm-47.7,0h7.951v7.951H74.128Zm7.951-7.951h7.951v7.951H82.078Zm7.951,7.951H97.98v7.951H90.029Zm15.9,0h7.951v7.951h-7.951Zm7.951-7.951h7.951v7.951h-7.951Zm7.951,23.852h7.951v7.951h-7.951Zm-47.7,0h7.951v7.951H74.128Zm7.951-7.951h7.951v7.951H82.078Zm15.9,0h7.951v7.951H97.98Zm7.951,7.951h7.951v7.951h-7.951Zm7.951-7.951h7.951v7.951h-7.951Zm7.951,23.852h7.951v7.951h-7.951Zm-39.754-7.951h7.951v7.951H82.078Zm7.951,7.951H97.98v7.951H90.029Zm7.951-7.951h7.951v7.951H97.98Zm7.951,7.951h7.951v7.951h-7.951ZM82.078,121.19h7.951v7.951H82.078Zm15.9,0h7.951v7.951H97.98Zm15.9,0h7.951v7.951h-7.951Z" transform="translate(618.823 737.072)"/>
    <g id="Group_421" data-name="Group 421" transform="translate(664.478 782.083)">
      <g id="Rectangle_1075" data-name="Rectangle 1075" transform="translate(0 0)" fill="#00bf4d" stroke="#fff" stroke-width="2">
        <rect width="41.046" height="41.047" rx="9" stroke="none"/>
        <rect x="1" y="1" width="39.046" height="39.047" rx="8" fill="none"/>
      </g>
      <path id="Icon_simple-line" data-name="Icon simple-line" d="M21.743,11.29a.708.708,0,0,1,0,1.416H19.772v1.263h1.971a.707.707,0,1,1,0,1.414H19.064a.708.708,0,0,1-.7-.706V9.319a.709.709,0,0,1,.707-.707h2.679a.707.707,0,0,1,0,1.415H19.772V11.29h1.971Zm-4.328,3.386a.707.707,0,0,1-.485.669.725.725,0,0,1-.223.035.694.694,0,0,1-.573-.281L13.39,11.375v3.3a.706.706,0,1,1-1.411,0V9.319a.7.7,0,0,1,.483-.668.653.653,0,0,1,.218-.037.726.726,0,0,1,.556.285L16,12.638V9.319a.707.707,0,0,1,1.415,0v5.357Zm-6.446,0a.706.706,0,0,1-1.412,0V9.319a.706.706,0,1,1,1.412,0ZM8.2,15.382H5.521a.711.711,0,0,1-.707-.706V9.319a.707.707,0,0,1,1.415,0v4.649H8.2a.707.707,0,0,1,0,1.414M26.947,11.8C26.947,5.766,20.9.858,13.474.858S0,5.766,0,11.8c0,5.4,4.794,9.928,11.267,10.788.439.092,1.036.29,1.188.662a2.743,2.743,0,0,1,.043,1.213L12.314,25.6c-.051.338-.269,1.332,1.178.724S21.257,21.75,24.086,18.5a9.682,9.682,0,0,0,2.861-6.7" transform="translate(7.049 6.834)" fill="#fff"/>
    </g>
  </g>
</svg>
