<svg xmlns="http://www.w3.org/2000/svg" width="31.864" height="30.345" viewBox="0 0 31.864 30.345">
  <path id="Icon_simple-line" data-name="Icon simple-line" d="M25.71,13.193a.837.837,0,0,1,0,1.674H23.38v1.494h2.33a.836.836,0,1,1,0,1.672H22.542a.838.838,0,0,1-.832-.835V10.863a.839.839,0,0,1,.836-.836h3.168a.836.836,0,0,1,0,1.673H23.38v1.494h2.33Zm-5.118,4a.836.836,0,0,1-.574.791.858.858,0,0,1-.264.041.821.821,0,0,1-.677-.332l-3.243-4.4v3.9a.834.834,0,1,1-1.669,0V10.863a.832.832,0,0,1,.571-.79.772.772,0,0,1,.258-.044.859.859,0,0,1,.657.337l3.269,4.421V10.863a.836.836,0,0,1,1.673,0V17.2Zm-7.622,0a.835.835,0,0,1-1.67,0V10.863a.835.835,0,1,1,1.67,0ZM9.7,18.032H6.528a.841.841,0,0,1-.836-.835V10.863a.836.836,0,0,1,1.673,0v5.5H9.7a.836.836,0,0,1,0,1.672m22.168-4.241C31.864,6.661,24.715.858,15.932.858S0,6.661,0,13.792c0,6.387,5.669,11.739,13.323,12.756.519.109,1.225.343,1.4.783a3.243,3.243,0,0,1,.05,1.434l-.218,1.354c-.06.4-.319,1.575,1.393.856s9.182-5.414,12.528-9.26a11.448,11.448,0,0,0,3.383-7.923" transform="translate(0 -0.858)" fill="#325679"/>
</svg>
