<svg xmlns="http://www.w3.org/2000/svg" xmlns:xlink="http://www.w3.org/1999/xlink" width="49.979" height="39.269" viewBox="0 0 49.979 39.269">
  <defs>
    <linearGradient id="linear-gradient" x1="0.5" x2="0.5" y2="1" gradientUnits="objectBoundingBox">
      <stop offset="0" stop-color="#82ffeb"/>
      <stop offset="1" stop-color="#0e70d2"/>
    </linearGradient>
  </defs>
  <g id="Icon_ionic-md-megaphone" data-name="Icon ionic-md-megaphone" transform="translate(0 0)">
    <path id="Path_423" data-name="Path 423" d="M27.819,10.083l-2.577,2.566a9.076,9.076,0,0,1,0,12.852l2.577,2.577a12.726,12.726,0,0,0,0-17.995Z" transform="translate(11.238 -3.01)" fill="url(#linear-gradient)"/>
    <path id="Path_424" data-name="Path 424" d="M31.044,6.961,28.512,9.493a16.16,16.16,0,0,1,0,22.825l2.532,2.532a19.715,19.715,0,0,0,0-27.89Z" transform="translate(13.156 -4.841)" fill="url(#linear-gradient)"/>
    <path id="Path_425" data-name="Path 425" d="M34.379,17.238V5.625h-3.57L20.1,14.55H5.82L2.25,16.335V28.83l3.57,1.785,8.925,14.28H20.1l-3.347-14.28H20.1l10.71,7.14h3.57V26.141a4.226,4.226,0,0,0,3.57-4.451A4.226,4.226,0,0,0,34.379,17.238Z" transform="translate(-2.25 -5.625)" fill="url(#linear-gradient)"/>
  </g>
</svg>
