<svg xmlns="http://www.w3.org/2000/svg" xmlns:xlink="http://www.w3.org/1999/xlink" width="91.303" height="67.545" viewBox="0 0 91.303 67.545">
  <defs>
    <filter id="Ellipse_14" x="49.372" y="0" width="41.931" height="41.333" filterUnits="userSpaceOnUse">
      <feOffset dy="3" input="SourceAlpha"/>
      <feGaussianBlur stdDeviation="3" result="blur"/>
      <feFlood flood-opacity="0.161"/>
      <feComposite operator="in" in2="blur"/>
      <feComposite in="SourceGraphic"/>
    </filter>
  </defs>
  <g id="Group_103" data-name="Group 103" transform="translate(-1058.331 -1201.613)">
    <path id="Icon_awesome-camera" data-name="Icon awesome-camera" d="M70.337,17.636V57.2A6.6,6.6,0,0,1,63.743,63.8H6.594A6.6,6.6,0,0,1,0,57.2V17.636a6.6,6.6,0,0,1,6.594-6.594H18.683l1.69-4.52A6.585,6.585,0,0,1,26.541,2.25H43.782a6.585,6.585,0,0,1,6.168,4.272l1.7,4.52H63.743A6.6,6.6,0,0,1,70.337,17.636ZM51.654,37.419A16.485,16.485,0,1,0,35.169,53.9,16.5,16.5,0,0,0,51.654,37.419Zm-4.4,0A12.089,12.089,0,1,1,35.169,25.329,12.107,12.107,0,0,1,47.258,37.419Z" transform="translate(1058.331 1205.363)" fill="#325679"/>
    <g id="Group_72" data-name="Group 72" transform="translate(1116.703 1207.613)">
      <g transform="matrix(1, 0, 0, 1, -58.37, -6)" filter="url(#Ellipse_14)">
        <ellipse id="Ellipse_14-2" data-name="Ellipse 14" cx="11.966" cy="11.666" rx="11.966" ry="11.666" transform="translate(58.37 6)" fill="#325679"/>
      </g>
      <path id="Icon_awesome-plus" data-name="Icon awesome-plus" d="M13.231,7.848H8.651V3.268A1.018,1.018,0,0,0,7.633,2.25H6.616A1.018,1.018,0,0,0,5.6,3.268v4.58H1.018A1.018,1.018,0,0,0,0,8.866V9.883A1.018,1.018,0,0,0,1.018,10.9H5.6v4.58A1.018,1.018,0,0,0,6.616,16.5H7.633a1.018,1.018,0,0,0,1.018-1.018V10.9h4.58a1.018,1.018,0,0,0,1.018-1.018V8.866A1.018,1.018,0,0,0,13.231,7.848Z" transform="translate(4.692 1.781)" fill="#fff"/>
    </g>
  </g>
</svg>
