<svg xmlns="http://www.w3.org/2000/svg" width="24.272" height="24.268" viewBox="0 0 24.272 24.268">
  <path id="Icon_awesome-upload" data-name="Icon awesome-upload" d="M14.032,18.206H10.24A1.135,1.135,0,0,1,9.1,17.068V9.1H4.944a.946.946,0,0,1-.668-1.617L11.487.272a.918.918,0,0,1,1.294,0L20,7.487A.946.946,0,0,1,19.327,9.1H15.17v7.964A1.135,1.135,0,0,1,14.032,18.206Zm10.24-.379v5.309a1.135,1.135,0,0,1-1.138,1.138h-22A1.135,1.135,0,0,1,0,23.136V17.826a1.135,1.135,0,0,1,1.138-1.138H7.585v.379a2.656,2.656,0,0,0,2.655,2.655h3.792a2.656,2.656,0,0,0,2.655-2.655v-.379h6.447A1.135,1.135,0,0,1,24.272,17.826ZM18.394,22a.948.948,0,1,0-.948.948A.951.951,0,0,0,18.394,22Zm3.034,0a.948.948,0,1,0-.948.948A.951.951,0,0,0,21.428,22Z" transform="translate(0 -0.005)" fill="#fff"/>
</svg>
